<mxfile host="app.diagrams.net" modified="2021-01-07T04:27:35.893Z" agent="5.0 (X11; Linux x86_64) AppleWebKit/537.36 (KHTML, like Gecko) Chrome/87.0.4280.66 Safari/537.36" etag="kverns6XG9-8AyI8wfQB" version="14.1.8" type="github">
  <diagram id="kgpKYQtTHZ0yAKxKKP6v" name="Page-1">
    <mxGraphModel dx="1594" dy="948" grid="1" gridSize="10" guides="1" tooltips="1" connect="1" arrows="1" fold="1" page="1" pageScale="1" pageWidth="850" pageHeight="1100" math="0" shadow="0">
      <root>
        <mxCell id="0" />
        <mxCell id="1" parent="0" />
        <mxCell id="PIwd8Y3L6m2QeTUVSltt-143" value="" style="shape=card;whiteSpace=wrap;html=1;strokeWidth=1;fillColor=none;rotation=-90;size=22;" parent="1" vertex="1">
          <mxGeometry x="1105.5" y="1806" width="38" height="46" as="geometry" />
        </mxCell>
        <mxCell id="PIwd8Y3L6m2QeTUVSltt-142" value="" style="shape=card;whiteSpace=wrap;html=1;strokeWidth=1;fillColor=none;rotation=-90;size=22;" parent="1" vertex="1">
          <mxGeometry x="1105.5" y="1737" width="38" height="46" as="geometry" />
        </mxCell>
        <mxCell id="3nuBFxr9cyL0pnOWT2aG-5" value=":AlertController" style="shape=umlLifeline;perimeter=lifelinePerimeter;container=1;collapsible=0;recursiveResize=0;rounded=0;shadow=0;strokeWidth=1;" parent="1" vertex="1">
          <mxGeometry x="220" y="80" width="100" height="580" as="geometry" />
        </mxCell>
        <mxCell id="3nuBFxr9cyL0pnOWT2aG-6" value="" style="points=[];perimeter=orthogonalPerimeter;rounded=0;shadow=0;strokeWidth=1;" parent="3nuBFxr9cyL0pnOWT2aG-5" vertex="1">
          <mxGeometry x="45" y="80" width="10" height="450" as="geometry" />
        </mxCell>
        <mxCell id="PIwd8Y3L6m2QeTUVSltt-1" value=":Rule" style="shape=umlLifeline;perimeter=lifelinePerimeter;container=1;collapsible=0;recursiveResize=0;rounded=0;shadow=0;strokeWidth=1;" parent="1" vertex="1">
          <mxGeometry x="370" y="80" width="100" height="570" as="geometry" />
        </mxCell>
        <mxCell id="PIwd8Y3L6m2QeTUVSltt-2" value="" style="points=[];perimeter=orthogonalPerimeter;rounded=0;shadow=0;strokeWidth=1;" parent="PIwd8Y3L6m2QeTUVSltt-1" vertex="1">
          <mxGeometry x="45" y="80" width="10" height="450" as="geometry" />
        </mxCell>
        <mxCell id="PIwd8Y3L6m2QeTUVSltt-3" value=":Transaction&#xa;Pusher" style="shape=umlLifeline;perimeter=lifelinePerimeter;container=1;collapsible=0;recursiveResize=0;rounded=0;shadow=0;strokeWidth=1;" parent="1" vertex="1">
          <mxGeometry x="520" y="80" width="100" height="570" as="geometry" />
        </mxCell>
        <mxCell id="PIwd8Y3L6m2QeTUVSltt-4" value="" style="points=[];perimeter=orthogonalPerimeter;rounded=0;shadow=0;strokeWidth=1;" parent="PIwd8Y3L6m2QeTUVSltt-3" vertex="1">
          <mxGeometry x="45" y="80" width="10" height="450" as="geometry" />
        </mxCell>
        <mxCell id="PIwd8Y3L6m2QeTUVSltt-5" value=":BigDecimal" style="shape=umlLifeline;perimeter=lifelinePerimeter;container=1;collapsible=0;recursiveResize=0;rounded=0;shadow=0;strokeWidth=1;" parent="1" vertex="1">
          <mxGeometry x="670" y="80" width="100" height="570" as="geometry" />
        </mxCell>
        <mxCell id="PIwd8Y3L6m2QeTUVSltt-6" value="" style="points=[];perimeter=orthogonalPerimeter;rounded=0;shadow=0;strokeWidth=1;" parent="PIwd8Y3L6m2QeTUVSltt-5" vertex="1">
          <mxGeometry x="45" y="190" width="10" height="90" as="geometry" />
        </mxCell>
        <mxCell id="PIwd8Y3L6m2QeTUVSltt-7" value=":String" style="shape=umlLifeline;perimeter=lifelinePerimeter;container=1;collapsible=0;recursiveResize=0;rounded=0;shadow=0;strokeWidth=1;" parent="1" vertex="1">
          <mxGeometry x="840" y="80" width="100" height="580" as="geometry" />
        </mxCell>
        <mxCell id="PIwd8Y3L6m2QeTUVSltt-8" value="" style="points=[];perimeter=orthogonalPerimeter;rounded=0;shadow=0;strokeWidth=1;" parent="PIwd8Y3L6m2QeTUVSltt-7" vertex="1">
          <mxGeometry x="45" y="80" width="10" height="450" as="geometry" />
        </mxCell>
        <mxCell id="PIwd8Y3L6m2QeTUVSltt-13" value="findById" style="verticalAlign=bottom;endArrow=block;shadow=0;strokeWidth=1;exitX=1.159;exitY=0.075;exitDx=0;exitDy=0;exitPerimeter=0;" parent="1" edge="1">
          <mxGeometry relative="1" as="geometry">
            <mxPoint x="276.5899999999999" y="177" as="sourcePoint" />
            <mxPoint x="419.5" y="177" as="targetPoint" />
          </mxGeometry>
        </mxCell>
        <mxCell id="PIwd8Y3L6m2QeTUVSltt-14" value="getLastTransaction" style="verticalAlign=bottom;endArrow=block;shadow=0;strokeWidth=1;exitX=1.041;exitY=0.185;exitDx=0;exitDy=0;exitPerimeter=0;" parent="1" edge="1">
          <mxGeometry relative="1" as="geometry">
            <mxPoint x="275.40999999999985" y="208.5999999999999" as="sourcePoint" />
            <mxPoint x="569.5" y="208.5999999999999" as="targetPoint" />
          </mxGeometry>
        </mxCell>
        <mxCell id="PIwd8Y3L6m2QeTUVSltt-15" value="getRulePayload" style="verticalAlign=bottom;endArrow=block;shadow=0;strokeWidth=1;exitX=0.924;exitY=0.318;exitDx=0;exitDy=0;exitPerimeter=0;entryX=0.5;entryY=0.318;entryDx=0;entryDy=0;entryPerimeter=0;" parent="1" edge="1">
          <mxGeometry relative="1" as="geometry">
            <mxPoint x="274.24" y="248.8800000000001" as="sourcePoint" />
            <mxPoint x="420" y="248.8800000000001" as="targetPoint" />
          </mxGeometry>
        </mxCell>
        <mxCell id="PIwd8Y3L6m2QeTUVSltt-16" value="multiply" style="verticalAlign=bottom;endArrow=block;shadow=0;strokeWidth=1;exitX=0.924;exitY=0.774;exitDx=0;exitDy=0;exitPerimeter=0;" parent="1" edge="1">
          <mxGeometry relative="1" as="geometry">
            <mxPoint x="274.24" y="293.3000000000002" as="sourcePoint" />
            <mxPoint x="719.5" y="293.3000000000002" as="targetPoint" />
          </mxGeometry>
        </mxCell>
        <mxCell id="PIwd8Y3L6m2QeTUVSltt-17" value="getPaymentAmount" style="verticalAlign=bottom;endArrow=block;shadow=0;strokeWidth=1;exitX=0.5;exitY=0.875;exitDx=0;exitDy=0;exitPerimeter=0;" parent="1" edge="1">
          <mxGeometry relative="1" as="geometry">
            <mxPoint x="720" y="332" as="sourcePoint" />
            <mxPoint x="569.3235294117644" y="332" as="targetPoint" />
          </mxGeometry>
        </mxCell>
        <mxCell id="PIwd8Y3L6m2QeTUVSltt-18" value="writeValueAsString" style="verticalAlign=bottom;endArrow=block;shadow=0;strokeWidth=1;" parent="1" source="3nuBFxr9cyL0pnOWT2aG-6" target="PIwd8Y3L6m2QeTUVSltt-7" edge="1">
          <mxGeometry relative="1" as="geometry">
            <mxPoint x="300" y="400.00000000000017" as="sourcePoint" />
            <mxPoint x="745.26" y="400.00000000000017" as="targetPoint" />
          </mxGeometry>
        </mxCell>
        <mxCell id="PIwd8Y3L6m2QeTUVSltt-20" value=":SimpMessaging&#xa;Template" style="shape=umlLifeline;perimeter=lifelinePerimeter;container=1;collapsible=0;recursiveResize=0;rounded=0;shadow=0;strokeWidth=1;" parent="1" vertex="1">
          <mxGeometry x="990" y="80" width="100" height="580" as="geometry" />
        </mxCell>
        <mxCell id="PIwd8Y3L6m2QeTUVSltt-21" value="" style="points=[];perimeter=orthogonalPerimeter;rounded=0;shadow=0;strokeWidth=1;" parent="PIwd8Y3L6m2QeTUVSltt-20" vertex="1">
          <mxGeometry x="45" y="80" width="10" height="450" as="geometry" />
        </mxCell>
        <mxCell id="PIwd8Y3L6m2QeTUVSltt-22" value="convertAndSend" style="verticalAlign=bottom;endArrow=block;shadow=0;strokeWidth=1;entryX=0.51;entryY=0.649;entryDx=0;entryDy=0;entryPerimeter=0;" parent="1" source="3nuBFxr9cyL0pnOWT2aG-6" target="PIwd8Y3L6m2QeTUVSltt-20" edge="1">
          <mxGeometry relative="1" as="geometry">
            <mxPoint x="285" y="450.0000000000002" as="sourcePoint" />
            <mxPoint x="899.5" y="450.0000000000002" as="targetPoint" />
          </mxGeometry>
        </mxCell>
        <mxCell id="PIwd8Y3L6m2QeTUVSltt-23" value=":WebSocket" style="shape=umlLifeline;perimeter=lifelinePerimeter;container=1;collapsible=0;recursiveResize=0;rounded=0;shadow=0;strokeWidth=1;" parent="1" vertex="1">
          <mxGeometry x="1160" y="80" width="100" height="580" as="geometry" />
        </mxCell>
        <mxCell id="PIwd8Y3L6m2QeTUVSltt-24" value="" style="points=[];perimeter=orthogonalPerimeter;rounded=0;shadow=0;strokeWidth=1;" parent="PIwd8Y3L6m2QeTUVSltt-23" vertex="1">
          <mxGeometry x="45" y="80" width="10" height="450" as="geometry" />
        </mxCell>
        <mxCell id="PIwd8Y3L6m2QeTUVSltt-25" value="send" style="verticalAlign=bottom;endArrow=block;shadow=0;strokeWidth=1;exitX=1.1;exitY=0.76;exitDx=0;exitDy=0;exitPerimeter=0;" parent="1" edge="1">
          <mxGeometry relative="1" as="geometry">
            <mxPoint x="1045.9999999999995" y="495" as="sourcePoint" />
            <mxPoint x="1205" y="495" as="targetPoint" />
          </mxGeometry>
        </mxCell>
        <mxCell id="PIwd8Y3L6m2QeTUVSltt-26" value="&lt;font style=&quot;font-size: 30px&quot;&gt;Alert(&lt;/font&gt;&lt;font style=&quot;font-size: 20px&quot;&gt;/api/{id}/alert&lt;/font&gt;&lt;font style=&quot;font-size: 30px&quot;&gt;)&lt;/font&gt;" style="text;html=1;strokeColor=none;fillColor=none;align=center;verticalAlign=middle;whiteSpace=wrap;rounded=0;" parent="1" vertex="1">
          <mxGeometry x="500" y="10" width="470" height="40" as="geometry" />
        </mxCell>
        <mxCell id="PIwd8Y3L6m2QeTUVSltt-55" value=":DataGeneration&#xa;Controller" style="shape=umlLifeline;perimeter=lifelinePerimeter;container=1;collapsible=0;recursiveResize=0;rounded=0;shadow=0;strokeWidth=1;" parent="1" vertex="1">
          <mxGeometry x="285" y="830" width="100" height="250" as="geometry" />
        </mxCell>
        <mxCell id="PIwd8Y3L6m2QeTUVSltt-56" value="" style="points=[];perimeter=orthogonalPerimeter;rounded=0;shadow=0;strokeWidth=1;" parent="PIwd8Y3L6m2QeTUVSltt-55" vertex="1">
          <mxGeometry x="45" y="70" width="10" height="150" as="geometry" />
        </mxCell>
        <mxCell id="PIwd8Y3L6m2QeTUVSltt-57" value="dispatch" style="verticalAlign=bottom;startArrow=oval;endArrow=block;startSize=8;shadow=0;strokeWidth=1;" parent="PIwd8Y3L6m2QeTUVSltt-55" target="PIwd8Y3L6m2QeTUVSltt-56" edge="1">
          <mxGeometry relative="1" as="geometry">
            <mxPoint x="-15" y="70" as="sourcePoint" />
          </mxGeometry>
        </mxCell>
        <mxCell id="PIwd8Y3L6m2QeTUVSltt-58" value=":ExecuterService" style="shape=umlLifeline;perimeter=lifelinePerimeter;container=1;collapsible=0;recursiveResize=0;rounded=0;shadow=0;strokeWidth=1;" parent="1" vertex="1">
          <mxGeometry x="465" y="830" width="100" height="250" as="geometry" />
        </mxCell>
        <mxCell id="PIwd8Y3L6m2QeTUVSltt-59" value="" style="points=[];perimeter=orthogonalPerimeter;rounded=0;shadow=0;strokeWidth=1;" parent="PIwd8Y3L6m2QeTUVSltt-58" vertex="1">
          <mxGeometry x="45" y="80" width="10" height="140" as="geometry" />
        </mxCell>
        <mxCell id="PIwd8Y3L6m2QeTUVSltt-61" value="submit" style="verticalAlign=bottom;endArrow=block;entryX=0;entryY=0;shadow=0;strokeWidth=1;" parent="1" source="PIwd8Y3L6m2QeTUVSltt-56" target="PIwd8Y3L6m2QeTUVSltt-59" edge="1">
          <mxGeometry relative="1" as="geometry">
            <mxPoint x="440" y="910" as="sourcePoint" />
          </mxGeometry>
        </mxCell>
        <mxCell id="PIwd8Y3L6m2QeTUVSltt-62" value=":DemoTransaction&#xa;Generator" style="shape=umlLifeline;perimeter=lifelinePerimeter;container=1;collapsible=0;recursiveResize=0;rounded=0;shadow=0;strokeWidth=1;" parent="1" vertex="1">
          <mxGeometry x="615" y="830" width="100" height="250" as="geometry" />
        </mxCell>
        <mxCell id="PIwd8Y3L6m2QeTUVSltt-63" value="" style="points=[];perimeter=orthogonalPerimeter;rounded=0;shadow=0;strokeWidth=1;" parent="PIwd8Y3L6m2QeTUVSltt-62" vertex="1">
          <mxGeometry x="45" y="80" width="10" height="140" as="geometry" />
        </mxCell>
        <mxCell id="PIwd8Y3L6m2QeTUVSltt-64" value=":Transaction" style="shape=umlLifeline;perimeter=lifelinePerimeter;container=1;collapsible=0;recursiveResize=0;rounded=0;shadow=0;strokeWidth=1;" parent="1" vertex="1">
          <mxGeometry x="765" y="830" width="100" height="250" as="geometry" />
        </mxCell>
        <mxCell id="PIwd8Y3L6m2QeTUVSltt-65" value="" style="points=[];perimeter=orthogonalPerimeter;rounded=0;shadow=0;strokeWidth=1;" parent="PIwd8Y3L6m2QeTUVSltt-64" vertex="1">
          <mxGeometry x="45" y="80" width="10" height="140" as="geometry" />
        </mxCell>
        <mxCell id="PIwd8Y3L6m2QeTUVSltt-70" value="run" style="verticalAlign=bottom;endArrow=block;shadow=0;strokeWidth=1;exitX=1.159;exitY=0.075;exitDx=0;exitDy=0;exitPerimeter=0;" parent="1" edge="1">
          <mxGeometry relative="1" as="geometry">
            <mxPoint x="521.5899999999999" y="939" as="sourcePoint" />
            <mxPoint x="664.5" y="939" as="targetPoint" />
          </mxGeometry>
        </mxCell>
        <mxCell id="PIwd8Y3L6m2QeTUVSltt-71" value="super" style="verticalAlign=bottom;endArrow=block;shadow=0;strokeWidth=1;" parent="1" edge="1">
          <mxGeometry relative="1" as="geometry">
            <mxPoint x="670" y="978.5999999999999" as="sourcePoint" />
            <mxPoint x="814.5" y="978.5999999999999" as="targetPoint" />
          </mxGeometry>
        </mxCell>
        <mxCell id="PIwd8Y3L6m2QeTUVSltt-82" value="&lt;font style=&quot;font-size: 30px&quot;&gt;Start Data Generation(&lt;/font&gt;&lt;font style=&quot;font-size: 20px&quot;&gt;/api/startTransactionsGeneration&lt;/font&gt;&lt;font style=&quot;font-size: 30px&quot;&gt;)&lt;/font&gt;" style="text;html=1;strokeColor=none;fillColor=none;align=center;verticalAlign=middle;whiteSpace=wrap;rounded=0;" parent="1" vertex="1">
          <mxGeometry x="350" y="750" width="690" height="50" as="geometry" />
        </mxCell>
        <mxCell id="PIwd8Y3L6m2QeTUVSltt-84" value="dispatch" style="verticalAlign=bottom;startArrow=oval;endArrow=block;startSize=8;shadow=0;strokeWidth=1;" parent="1" edge="1">
          <mxGeometry relative="1" as="geometry">
            <mxPoint x="200" y="170" as="sourcePoint" />
            <mxPoint x="260" y="170" as="targetPoint" />
          </mxGeometry>
        </mxCell>
        <mxCell id="PIwd8Y3L6m2QeTUVSltt-100" value=":DataGeneration&#xa;Controller" style="shape=umlLifeline;perimeter=lifelinePerimeter;container=1;collapsible=0;recursiveResize=0;rounded=0;shadow=0;strokeWidth=1;" parent="1" vertex="1">
          <mxGeometry x="475" y="1250" width="100" height="250" as="geometry" />
        </mxCell>
        <mxCell id="PIwd8Y3L6m2QeTUVSltt-101" value="" style="points=[];perimeter=orthogonalPerimeter;rounded=0;shadow=0;strokeWidth=1;" parent="PIwd8Y3L6m2QeTUVSltt-100" vertex="1">
          <mxGeometry x="45" y="70" width="10" height="150" as="geometry" />
        </mxCell>
        <mxCell id="PIwd8Y3L6m2QeTUVSltt-102" value="dispatch" style="verticalAlign=bottom;startArrow=oval;endArrow=block;startSize=8;shadow=0;strokeWidth=1;" parent="PIwd8Y3L6m2QeTUVSltt-100" target="PIwd8Y3L6m2QeTUVSltt-101" edge="1">
          <mxGeometry relative="1" as="geometry">
            <mxPoint x="-15" y="70" as="sourcePoint" />
          </mxGeometry>
        </mxCell>
        <mxCell id="PIwd8Y3L6m2QeTUVSltt-103" value=":DemoTransaction&#xa;Generator" style="shape=umlLifeline;perimeter=lifelinePerimeter;container=1;collapsible=0;recursiveResize=0;rounded=0;shadow=0;strokeWidth=1;" parent="1" vertex="1">
          <mxGeometry x="655" y="1250" width="100" height="250" as="geometry" />
        </mxCell>
        <mxCell id="PIwd8Y3L6m2QeTUVSltt-104" value="" style="points=[];perimeter=orthogonalPerimeter;rounded=0;shadow=0;strokeWidth=1;" parent="PIwd8Y3L6m2QeTUVSltt-103" vertex="1">
          <mxGeometry x="45" y="80" width="10" height="140" as="geometry" />
        </mxCell>
        <mxCell id="PIwd8Y3L6m2QeTUVSltt-106" value="cancel" style="verticalAlign=bottom;endArrow=block;entryX=0;entryY=0;shadow=0;strokeWidth=1;" parent="1" source="PIwd8Y3L6m2QeTUVSltt-101" target="PIwd8Y3L6m2QeTUVSltt-104" edge="1">
          <mxGeometry relative="1" as="geometry">
            <mxPoint x="630" y="1330" as="sourcePoint" />
          </mxGeometry>
        </mxCell>
        <mxCell id="PIwd8Y3L6m2QeTUVSltt-113" value="&lt;font style=&quot;font-size: 30px&quot;&gt;Stop Data Generation(&lt;/font&gt;&lt;font style=&quot;font-size: 20px&quot;&gt;/api/stopTransactionGeneration&lt;/font&gt;&lt;font style=&quot;font-size: 30px&quot;&gt;)&lt;/font&gt;" style="text;html=1;strokeColor=none;fillColor=none;align=center;verticalAlign=middle;whiteSpace=wrap;rounded=0;" parent="1" vertex="1">
          <mxGeometry x="379" y="1170" width="666" height="50" as="geometry" />
        </mxCell>
        <mxCell id="PIwd8Y3L6m2QeTUVSltt-114" value=":DataGeneration&#xa;Controller" style="shape=umlLifeline;perimeter=lifelinePerimeter;container=1;collapsible=0;recursiveResize=0;rounded=0;shadow=0;strokeWidth=1;" parent="1" vertex="1">
          <mxGeometry x="257.5" y="1680" width="100" height="520" as="geometry" />
        </mxCell>
        <mxCell id="PIwd8Y3L6m2QeTUVSltt-115" value="" style="points=[];perimeter=orthogonalPerimeter;rounded=0;shadow=0;strokeWidth=1;" parent="PIwd8Y3L6m2QeTUVSltt-114" vertex="1">
          <mxGeometry x="45" y="70" width="10" height="420" as="geometry" />
        </mxCell>
        <mxCell id="PIwd8Y3L6m2QeTUVSltt-116" value="dispatch" style="verticalAlign=bottom;startArrow=oval;endArrow=block;startSize=8;shadow=0;strokeWidth=1;" parent="PIwd8Y3L6m2QeTUVSltt-114" target="PIwd8Y3L6m2QeTUVSltt-115" edge="1">
          <mxGeometry relative="1" as="geometry">
            <mxPoint x="-15" y="70" as="sourcePoint" />
          </mxGeometry>
        </mxCell>
        <mxCell id="PIwd8Y3L6m2QeTUVSltt-117" value=":DemoTransaction&#xa;Generator" style="shape=umlLifeline;perimeter=lifelinePerimeter;container=1;collapsible=0;recursiveResize=0;rounded=0;shadow=0;strokeWidth=1;" parent="1" vertex="1">
          <mxGeometry x="437.5" y="1680" width="100" height="520" as="geometry" />
        </mxCell>
        <mxCell id="PIwd8Y3L6m2QeTUVSltt-118" value="" style="points=[];perimeter=orthogonalPerimeter;rounded=0;shadow=0;strokeWidth=1;" parent="PIwd8Y3L6m2QeTUVSltt-117" vertex="1">
          <mxGeometry x="45" y="70" width="10" height="420" as="geometry" />
        </mxCell>
        <mxCell id="PIwd8Y3L6m2QeTUVSltt-120" value="[[if speed&lt;=0] cancel" style="verticalAlign=bottom;endArrow=block;entryX=0;entryY=0;shadow=0;strokeWidth=1;" parent="1" edge="1">
          <mxGeometry relative="1" as="geometry">
            <mxPoint x="312.5" y="1779.0000000000005" as="sourcePoint" />
            <mxPoint x="482.4999999999998" y="1779.0000000000005" as="targetPoint" />
          </mxGeometry>
        </mxCell>
        <mxCell id="PIwd8Y3L6m2QeTUVSltt-127" value="&lt;font style=&quot;font-size: 30px&quot;&gt;Change generator speed (&lt;/font&gt;&lt;font style=&quot;font-size: 20px&quot;&gt;/api/generatorSpeed/{speed}&lt;/font&gt;&lt;font style=&quot;font-size: 30px&quot;&gt;)&lt;/font&gt;" style="text;html=1;strokeColor=none;fillColor=none;align=center;verticalAlign=middle;whiteSpace=wrap;rounded=0;" parent="1" vertex="1">
          <mxGeometry x="350" y="1600" width="690" height="50" as="geometry" />
        </mxCell>
        <mxCell id="PIwd8Y3L6m2QeTUVSltt-128" value="" style="rounded=0;whiteSpace=wrap;html=1;" parent="1" vertex="1">
          <mxGeometry x="942.5" y="1840" width="155" height="60" as="geometry" />
        </mxCell>
        <mxCell id="PIwd8Y3L6m2QeTUVSltt-129" value="Start Data Generation" style="text;html=1;strokeColor=none;fillColor=none;align=center;verticalAlign=middle;whiteSpace=wrap;rounded=0;" parent="1" vertex="1">
          <mxGeometry x="942.5" y="1861" width="155" height="20" as="geometry" />
        </mxCell>
        <mxCell id="PIwd8Y3L6m2QeTUVSltt-130" value=":MessageListener&#xa;Container" style="shape=umlLifeline;perimeter=lifelinePerimeter;container=1;collapsible=0;recursiveResize=0;rounded=0;shadow=0;strokeWidth=1;" parent="1" vertex="1">
          <mxGeometry x="617.5" y="1680" width="100" height="520" as="geometry" />
        </mxCell>
        <mxCell id="PIwd8Y3L6m2QeTUVSltt-131" value="" style="points=[];perimeter=orthogonalPerimeter;rounded=0;shadow=0;strokeWidth=1;" parent="PIwd8Y3L6m2QeTUVSltt-130" vertex="1">
          <mxGeometry x="45" y="70" width="10" height="420" as="geometry" />
        </mxCell>
        <mxCell id="PIwd8Y3L6m2QeTUVSltt-126" value="[else] generateTransaction" style="verticalAlign=bottom;endArrow=block;shadow=0;strokeWidth=1;" parent="1" edge="1">
          <mxGeometry relative="1" as="geometry">
            <mxPoint x="312.5" y="1872.5172413793107" as="sourcePoint" />
            <mxPoint x="942.5" y="1872.5172413793107" as="targetPoint" />
          </mxGeometry>
        </mxCell>
        <mxCell id="PIwd8Y3L6m2QeTUVSltt-132" value=":KafkaListener&#xa;EndpointRegistry" style="shape=umlLifeline;perimeter=lifelinePerimeter;container=1;collapsible=0;recursiveResize=0;rounded=0;shadow=0;strokeWidth=1;" parent="1" vertex="1">
          <mxGeometry x="807.5" y="1680" width="100" height="520" as="geometry" />
        </mxCell>
        <mxCell id="PIwd8Y3L6m2QeTUVSltt-133" value="" style="points=[];perimeter=orthogonalPerimeter;rounded=0;shadow=0;strokeWidth=1;" parent="PIwd8Y3L6m2QeTUVSltt-132" vertex="1">
          <mxGeometry x="45" y="70" width="10" height="420" as="geometry" />
        </mxCell>
        <mxCell id="PIwd8Y3L6m2QeTUVSltt-134" value="getListenerContainer" style="verticalAlign=bottom;endArrow=block;shadow=0;strokeWidth=1;" parent="1" edge="1">
          <mxGeometry relative="1" as="geometry">
            <mxPoint x="312.5" y="1925" as="sourcePoint" />
            <mxPoint x="662.4999999999998" y="1925" as="targetPoint" />
          </mxGeometry>
        </mxCell>
        <mxCell id="PIwd8Y3L6m2QeTUVSltt-135" value="getListenerContainer" style="verticalAlign=bottom;endArrow=block;shadow=0;strokeWidth=1;" parent="1" edge="1">
          <mxGeometry relative="1" as="geometry">
            <mxPoint x="672.4999999999998" y="1947" as="sourcePoint" />
            <mxPoint x="852.5" y="1947" as="targetPoint" />
          </mxGeometry>
        </mxCell>
        <mxCell id="PIwd8Y3L6m2QeTUVSltt-139" value="Alt" style="text;html=1;strokeColor=none;fillColor=none;align=center;verticalAlign=middle;whiteSpace=wrap;rounded=0;" parent="1" vertex="1">
          <mxGeometry x="1107.5" y="1746" width="40" height="20" as="geometry" />
        </mxCell>
        <mxCell id="PIwd8Y3L6m2QeTUVSltt-140" value="Alt" style="text;html=1;strokeColor=none;fillColor=none;align=center;verticalAlign=middle;whiteSpace=wrap;rounded=0;" parent="1" vertex="1">
          <mxGeometry x="1107.5" y="1817" width="40" height="20" as="geometry" />
        </mxCell>
        <mxCell id="PIwd8Y3L6m2QeTUVSltt-137" value="" style="rounded=0;whiteSpace=wrap;html=1;strokeWidth=1;fillColor=none;" parent="1" vertex="1">
          <mxGeometry x="297.5" y="1740" width="850" height="70" as="geometry" />
        </mxCell>
        <mxCell id="PIwd8Y3L6m2QeTUVSltt-145" value="[if speed &gt; transactionRateDisplayLimit] stop" style="verticalAlign=bottom;endArrow=block;shadow=0;strokeWidth=1;" parent="1" edge="1">
          <mxGeometry relative="1" as="geometry">
            <mxPoint x="312.5" y="1998" as="sourcePoint" />
            <mxPoint x="662.4999999999998" y="1998" as="targetPoint" />
          </mxGeometry>
        </mxCell>
        <mxCell id="PIwd8Y3L6m2QeTUVSltt-146" value="[if speed &lt;= transactionRateDisplayLimit&#xa;&amp;&amp; !listenerContainerRunning] start" style="verticalAlign=bottom;endArrow=block;shadow=0;strokeWidth=1;" parent="1" edge="1">
          <mxGeometry relative="1" as="geometry">
            <mxPoint x="312.5" y="2050" as="sourcePoint" />
            <mxPoint x="662.4999999999998" y="2050" as="targetPoint" />
          </mxGeometry>
        </mxCell>
        <mxCell id="PIwd8Y3L6m2QeTUVSltt-147" value="[if transactionGenerator != null] &#xa;adjustMaxRecordsPerSecond" style="verticalAlign=bottom;endArrow=block;shadow=0;strokeWidth=1;" parent="1" target="PIwd8Y3L6m2QeTUVSltt-118" edge="1">
          <mxGeometry relative="1" as="geometry">
            <mxPoint x="312.5" y="2120" as="sourcePoint" />
            <mxPoint x="662.4999999999998" y="2120" as="targetPoint" />
          </mxGeometry>
        </mxCell>
        <mxCell id="PIwd8Y3L6m2QeTUVSltt-151" value="" style="rounded=0;whiteSpace=wrap;html=1;strokeWidth=1;fillColor=none;" parent="1" vertex="1">
          <mxGeometry x="297.5" y="1810" width="850" height="340" as="geometry" />
        </mxCell>
        <mxCell id="PIwd8Y3L6m2QeTUVSltt-152" value=":FlinkController" style="shape=umlLifeline;perimeter=lifelinePerimeter;container=1;collapsible=0;recursiveResize=0;rounded=0;shadow=0;strokeWidth=1;" parent="1" vertex="1">
          <mxGeometry x="202.5" y="2400" width="100" height="590" as="geometry" />
        </mxCell>
        <mxCell id="PIwd8Y3L6m2QeTUVSltt-153" value="" style="points=[];perimeter=orthogonalPerimeter;rounded=0;shadow=0;strokeWidth=1;" parent="PIwd8Y3L6m2QeTUVSltt-152" vertex="1">
          <mxGeometry x="45" y="70" width="10" height="470" as="geometry" />
        </mxCell>
        <mxCell id="PIwd8Y3L6m2QeTUVSltt-154" value="dispatch" style="verticalAlign=bottom;startArrow=oval;endArrow=block;startSize=8;shadow=0;strokeWidth=1;" parent="PIwd8Y3L6m2QeTUVSltt-152" target="PIwd8Y3L6m2QeTUVSltt-153" edge="1">
          <mxGeometry relative="1" as="geometry">
            <mxPoint x="-15" y="70" as="sourcePoint" />
          </mxGeometry>
        </mxCell>
        <mxCell id="PIwd8Y3L6m2QeTUVSltt-155" value=":Rule" style="shape=umlLifeline;perimeter=lifelinePerimeter;container=1;collapsible=0;recursiveResize=0;rounded=0;shadow=0;strokeWidth=1;" parent="1" vertex="1">
          <mxGeometry x="382.5" y="2400" width="100" height="590" as="geometry" />
        </mxCell>
        <mxCell id="PIwd8Y3L6m2QeTUVSltt-156" value="" style="points=[];perimeter=orthogonalPerimeter;rounded=0;shadow=0;strokeWidth=1;" parent="PIwd8Y3L6m2QeTUVSltt-155" vertex="1">
          <mxGeometry x="45" y="80" width="10" height="460" as="geometry" />
        </mxCell>
        <mxCell id="PIwd8Y3L6m2QeTUVSltt-157" value="crateControllCommand" style="verticalAlign=bottom;endArrow=block;entryX=0;entryY=0;shadow=0;strokeWidth=1;" parent="1" source="PIwd8Y3L6m2QeTUVSltt-153" target="PIwd8Y3L6m2QeTUVSltt-156" edge="1">
          <mxGeometry relative="1" as="geometry">
            <mxPoint x="357.5" y="2480" as="sourcePoint" />
          </mxGeometry>
        </mxCell>
        <mxCell id="PIwd8Y3L6m2QeTUVSltt-158" value=":RulePayload" style="shape=umlLifeline;perimeter=lifelinePerimeter;container=1;collapsible=0;recursiveResize=0;rounded=0;shadow=0;strokeWidth=1;" parent="1" vertex="1">
          <mxGeometry x="777.5" y="2400" width="100" height="590" as="geometry" />
        </mxCell>
        <mxCell id="PIwd8Y3L6m2QeTUVSltt-159" value="" style="points=[];perimeter=orthogonalPerimeter;rounded=0;shadow=0;strokeWidth=1;" parent="PIwd8Y3L6m2QeTUVSltt-158" vertex="1">
          <mxGeometry x="45" y="80" width="10" height="460" as="geometry" />
        </mxCell>
        <mxCell id="PIwd8Y3L6m2QeTUVSltt-160" value=":FlinkRuleService" style="shape=umlLifeline;perimeter=lifelinePerimeter;container=1;collapsible=0;recursiveResize=0;rounded=0;shadow=0;strokeWidth=1;" parent="1" vertex="1">
          <mxGeometry x="967.5" y="2400" width="100" height="590" as="geometry" />
        </mxCell>
        <mxCell id="PIwd8Y3L6m2QeTUVSltt-161" value="" style="points=[];perimeter=orthogonalPerimeter;rounded=0;shadow=0;strokeWidth=1;" parent="PIwd8Y3L6m2QeTUVSltt-160" vertex="1">
          <mxGeometry x="45" y="80" width="10" height="460" as="geometry" />
        </mxCell>
        <mxCell id="PIwd8Y3L6m2QeTUVSltt-164" value="&lt;font style=&quot;font-size: 30px&quot;&gt;Get syncRules(&lt;/font&gt;&lt;font style=&quot;font-size: 20px&quot;&gt;/api/syncRules&lt;/font&gt;&lt;font style=&quot;font-size: 30px&quot;&gt;)&lt;/font&gt;" style="text;html=1;strokeColor=none;fillColor=none;align=center;verticalAlign=middle;whiteSpace=wrap;rounded=0;" parent="1" vertex="1">
          <mxGeometry x="400" y="2330" width="690" height="50" as="geometry" />
        </mxCell>
        <mxCell id="PIwd8Y3L6m2QeTUVSltt-167" value=":Rule" style="shape=umlLifeline;perimeter=lifelinePerimeter;container=1;collapsible=0;recursiveResize=0;rounded=0;shadow=0;strokeWidth=1;" parent="1" vertex="1">
          <mxGeometry x="472.5" y="2580" width="100" height="410" as="geometry" />
        </mxCell>
        <mxCell id="PIwd8Y3L6m2QeTUVSltt-168" value="" style="points=[];perimeter=orthogonalPerimeter;rounded=0;shadow=0;strokeWidth=1;" parent="PIwd8Y3L6m2QeTUVSltt-167" vertex="1">
          <mxGeometry x="45" y="80" width="10" height="280" as="geometry" />
        </mxCell>
        <mxCell id="PIwd8Y3L6m2QeTUVSltt-169" value="setRulePayload" style="verticalAlign=bottom;endArrow=block;shadow=0;strokeWidth=1;" parent="1" edge="1">
          <mxGeometry relative="1" as="geometry">
            <mxPoint x="437.4999999999998" y="2671" as="sourcePoint" />
            <mxPoint x="517.4999999999998" y="2671" as="targetPoint" />
          </mxGeometry>
        </mxCell>
        <mxCell id="PIwd8Y3L6m2QeTUVSltt-170" value=":ObjectMapper" style="shape=umlLifeline;perimeter=lifelinePerimeter;container=1;collapsible=0;recursiveResize=0;rounded=0;shadow=0;strokeWidth=1;" parent="1" vertex="1">
          <mxGeometry x="582.5" y="2400" width="100" height="590" as="geometry" />
        </mxCell>
        <mxCell id="PIwd8Y3L6m2QeTUVSltt-171" value="" style="points=[];perimeter=orthogonalPerimeter;rounded=0;shadow=0;strokeWidth=1;" parent="PIwd8Y3L6m2QeTUVSltt-170" vertex="1">
          <mxGeometry x="45" y="80" width="10" height="460" as="geometry" />
        </mxCell>
        <mxCell id="PIwd8Y3L6m2QeTUVSltt-172" value="writeValueAsString" style="verticalAlign=bottom;endArrow=block;shadow=0;strokeWidth=1;" parent="1" edge="1">
          <mxGeometry relative="1" as="geometry">
            <mxPoint x="527.5" y="2734" as="sourcePoint" />
            <mxPoint x="627.5" y="2734" as="targetPoint" />
          </mxGeometry>
        </mxCell>
        <mxCell id="PIwd8Y3L6m2QeTUVSltt-162" value="setRuleState" style="verticalAlign=bottom;endArrow=block;shadow=0;strokeWidth=1;exitX=1.159;exitY=0.075;exitDx=0;exitDy=0;exitPerimeter=0;" parent="1" target="PIwd8Y3L6m2QeTUVSltt-159" edge="1">
          <mxGeometry relative="1" as="geometry">
            <mxPoint x="439.0899999999997" y="2509" as="sourcePoint" />
            <mxPoint x="582" y="2509" as="targetPoint" />
          </mxGeometry>
        </mxCell>
        <mxCell id="PIwd8Y3L6m2QeTUVSltt-166" value="setControlType" style="verticalAlign=bottom;endArrow=block;shadow=0;strokeWidth=1;exitX=1.159;exitY=0.075;exitDx=0;exitDy=0;exitPerimeter=0;" parent="1" target="PIwd8Y3L6m2QeTUVSltt-159" edge="1">
          <mxGeometry relative="1" as="geometry">
            <mxPoint x="439.0899999999997" y="2550" as="sourcePoint" />
            <mxPoint x="582" y="2550" as="targetPoint" />
          </mxGeometry>
        </mxCell>
        <mxCell id="PIwd8Y3L6m2QeTUVSltt-163" value="addRule" style="verticalAlign=bottom;endArrow=block;shadow=0;strokeWidth=1;" parent="1" edge="1">
          <mxGeometry relative="1" as="geometry">
            <mxPoint x="257.5" y="2788" as="sourcePoint" />
            <mxPoint x="1012.5" y="2788" as="targetPoint" />
          </mxGeometry>
        </mxCell>
        <mxCell id="PIwd8Y3L6m2QeTUVSltt-173" value="getRulePayload" style="verticalAlign=bottom;endArrow=block;shadow=0;strokeWidth=1;" parent="1" edge="1">
          <mxGeometry relative="1" as="geometry">
            <mxPoint x="1012.5" y="2831" as="sourcePoint" />
            <mxPoint x="832.5" y="2831" as="targetPoint" />
          </mxGeometry>
        </mxCell>
        <mxCell id="PIwd8Y3L6m2QeTUVSltt-174" value=":KafkaTemplate" style="shape=umlLifeline;perimeter=lifelinePerimeter;container=1;collapsible=0;recursiveResize=0;rounded=0;shadow=0;strokeWidth=1;" parent="1" vertex="1">
          <mxGeometry x="1152.5" y="2400" width="100" height="590" as="geometry" />
        </mxCell>
        <mxCell id="PIwd8Y3L6m2QeTUVSltt-175" value="" style="points=[];perimeter=orthogonalPerimeter;rounded=0;shadow=0;strokeWidth=1;" parent="PIwd8Y3L6m2QeTUVSltt-174" vertex="1">
          <mxGeometry x="45" y="80" width="10" height="460" as="geometry" />
        </mxCell>
        <mxCell id="PIwd8Y3L6m2QeTUVSltt-176" value="send" style="verticalAlign=bottom;endArrow=block;shadow=0;strokeWidth=1;" parent="1" target="PIwd8Y3L6m2QeTUVSltt-175" edge="1">
          <mxGeometry relative="1" as="geometry">
            <mxPoint x="1022.4999999999998" y="2860" as="sourcePoint" />
            <mxPoint x="1122.4999999999998" y="2860" as="targetPoint" />
          </mxGeometry>
        </mxCell>
        <mxCell id="PIwd8Y3L6m2QeTUVSltt-177" value=":FlinkController" style="shape=umlLifeline;perimeter=lifelinePerimeter;container=1;collapsible=0;recursiveResize=0;rounded=0;shadow=0;strokeWidth=1;" parent="1" vertex="1">
          <mxGeometry x="202.5" y="3180" width="100" height="590" as="geometry" />
        </mxCell>
        <mxCell id="PIwd8Y3L6m2QeTUVSltt-178" value="" style="points=[];perimeter=orthogonalPerimeter;rounded=0;shadow=0;strokeWidth=1;" parent="PIwd8Y3L6m2QeTUVSltt-177" vertex="1">
          <mxGeometry x="45" y="70" width="10" height="470" as="geometry" />
        </mxCell>
        <mxCell id="PIwd8Y3L6m2QeTUVSltt-179" value="dispatch" style="verticalAlign=bottom;startArrow=oval;endArrow=block;startSize=8;shadow=0;strokeWidth=1;" parent="PIwd8Y3L6m2QeTUVSltt-177" target="PIwd8Y3L6m2QeTUVSltt-178" edge="1">
          <mxGeometry relative="1" as="geometry">
            <mxPoint x="-15" y="70" as="sourcePoint" />
          </mxGeometry>
        </mxCell>
        <mxCell id="PIwd8Y3L6m2QeTUVSltt-180" value=":Rule" style="shape=umlLifeline;perimeter=lifelinePerimeter;container=1;collapsible=0;recursiveResize=0;rounded=0;shadow=0;strokeWidth=1;" parent="1" vertex="1">
          <mxGeometry x="382.5" y="3180" width="100" height="590" as="geometry" />
        </mxCell>
        <mxCell id="PIwd8Y3L6m2QeTUVSltt-181" value="" style="points=[];perimeter=orthogonalPerimeter;rounded=0;shadow=0;strokeWidth=1;" parent="PIwd8Y3L6m2QeTUVSltt-180" vertex="1">
          <mxGeometry x="45" y="80" width="10" height="460" as="geometry" />
        </mxCell>
        <mxCell id="PIwd8Y3L6m2QeTUVSltt-182" value="crateControllCommand" style="verticalAlign=bottom;endArrow=block;entryX=0;entryY=0;shadow=0;strokeWidth=1;" parent="1" source="PIwd8Y3L6m2QeTUVSltt-178" target="PIwd8Y3L6m2QeTUVSltt-181" edge="1">
          <mxGeometry relative="1" as="geometry">
            <mxPoint x="357.5" y="3260" as="sourcePoint" />
          </mxGeometry>
        </mxCell>
        <mxCell id="PIwd8Y3L6m2QeTUVSltt-183" value=":RulePayload" style="shape=umlLifeline;perimeter=lifelinePerimeter;container=1;collapsible=0;recursiveResize=0;rounded=0;shadow=0;strokeWidth=1;" parent="1" vertex="1">
          <mxGeometry x="777.5" y="3180" width="100" height="590" as="geometry" />
        </mxCell>
        <mxCell id="PIwd8Y3L6m2QeTUVSltt-184" value="" style="points=[];perimeter=orthogonalPerimeter;rounded=0;shadow=0;strokeWidth=1;" parent="PIwd8Y3L6m2QeTUVSltt-183" vertex="1">
          <mxGeometry x="45" y="80" width="10" height="460" as="geometry" />
        </mxCell>
        <mxCell id="PIwd8Y3L6m2QeTUVSltt-185" value=":FlinkRuleService" style="shape=umlLifeline;perimeter=lifelinePerimeter;container=1;collapsible=0;recursiveResize=0;rounded=0;shadow=0;strokeWidth=1;" parent="1" vertex="1">
          <mxGeometry x="967.5" y="3180" width="100" height="590" as="geometry" />
        </mxCell>
        <mxCell id="PIwd8Y3L6m2QeTUVSltt-186" value="" style="points=[];perimeter=orthogonalPerimeter;rounded=0;shadow=0;strokeWidth=1;" parent="PIwd8Y3L6m2QeTUVSltt-185" vertex="1">
          <mxGeometry x="45" y="80" width="10" height="460" as="geometry" />
        </mxCell>
        <mxCell id="PIwd8Y3L6m2QeTUVSltt-187" value="&lt;font style=&quot;font-size: 30px&quot;&gt;Clear Rules(&lt;/font&gt;&lt;font style=&quot;font-size: 20px&quot;&gt;/api/clearState&lt;/font&gt;&lt;font style=&quot;font-size: 30px&quot;&gt;)&lt;/font&gt;" style="text;html=1;strokeColor=none;fillColor=none;align=center;verticalAlign=middle;whiteSpace=wrap;rounded=0;" parent="1" vertex="1">
          <mxGeometry x="400" y="3110" width="690" height="50" as="geometry" />
        </mxCell>
        <mxCell id="PIwd8Y3L6m2QeTUVSltt-188" value=":Rule" style="shape=umlLifeline;perimeter=lifelinePerimeter;container=1;collapsible=0;recursiveResize=0;rounded=0;shadow=0;strokeWidth=1;" parent="1" vertex="1">
          <mxGeometry x="472.5" y="3360" width="100" height="410" as="geometry" />
        </mxCell>
        <mxCell id="PIwd8Y3L6m2QeTUVSltt-189" value="" style="points=[];perimeter=orthogonalPerimeter;rounded=0;shadow=0;strokeWidth=1;" parent="PIwd8Y3L6m2QeTUVSltt-188" vertex="1">
          <mxGeometry x="45" y="80" width="10" height="280" as="geometry" />
        </mxCell>
        <mxCell id="PIwd8Y3L6m2QeTUVSltt-190" value="setRulePayload" style="verticalAlign=bottom;endArrow=block;shadow=0;strokeWidth=1;" parent="1" edge="1">
          <mxGeometry relative="1" as="geometry">
            <mxPoint x="437.5" y="3450.9999999999995" as="sourcePoint" />
            <mxPoint x="517.5" y="3450.9999999999995" as="targetPoint" />
          </mxGeometry>
        </mxCell>
        <mxCell id="PIwd8Y3L6m2QeTUVSltt-191" value=":ObjectMapper" style="shape=umlLifeline;perimeter=lifelinePerimeter;container=1;collapsible=0;recursiveResize=0;rounded=0;shadow=0;strokeWidth=1;" parent="1" vertex="1">
          <mxGeometry x="582.5" y="3180" width="100" height="590" as="geometry" />
        </mxCell>
        <mxCell id="PIwd8Y3L6m2QeTUVSltt-192" value="" style="points=[];perimeter=orthogonalPerimeter;rounded=0;shadow=0;strokeWidth=1;" parent="PIwd8Y3L6m2QeTUVSltt-191" vertex="1">
          <mxGeometry x="45" y="80" width="10" height="460" as="geometry" />
        </mxCell>
        <mxCell id="PIwd8Y3L6m2QeTUVSltt-193" value="writeValueAsString" style="verticalAlign=bottom;endArrow=block;shadow=0;strokeWidth=1;" parent="1" edge="1">
          <mxGeometry relative="1" as="geometry">
            <mxPoint x="527.5" y="3514.0000000000005" as="sourcePoint" />
            <mxPoint x="627.5" y="3514.0000000000005" as="targetPoint" />
          </mxGeometry>
        </mxCell>
        <mxCell id="PIwd8Y3L6m2QeTUVSltt-194" value="setRuleState" style="verticalAlign=bottom;endArrow=block;shadow=0;strokeWidth=1;exitX=1.159;exitY=0.075;exitDx=0;exitDy=0;exitPerimeter=0;" parent="1" target="PIwd8Y3L6m2QeTUVSltt-184" edge="1">
          <mxGeometry relative="1" as="geometry">
            <mxPoint x="439.0899999999997" y="3289.0000000000005" as="sourcePoint" />
            <mxPoint x="582" y="3289" as="targetPoint" />
          </mxGeometry>
        </mxCell>
        <mxCell id="PIwd8Y3L6m2QeTUVSltt-195" value="setControlType" style="verticalAlign=bottom;endArrow=block;shadow=0;strokeWidth=1;exitX=1.159;exitY=0.075;exitDx=0;exitDy=0;exitPerimeter=0;" parent="1" target="PIwd8Y3L6m2QeTUVSltt-184" edge="1">
          <mxGeometry relative="1" as="geometry">
            <mxPoint x="439.0899999999997" y="3330" as="sourcePoint" />
            <mxPoint x="582" y="3330" as="targetPoint" />
          </mxGeometry>
        </mxCell>
        <mxCell id="PIwd8Y3L6m2QeTUVSltt-196" value="addRule" style="verticalAlign=bottom;endArrow=block;shadow=0;strokeWidth=1;" parent="1" edge="1">
          <mxGeometry relative="1" as="geometry">
            <mxPoint x="257.5" y="3568" as="sourcePoint" />
            <mxPoint x="1012.5" y="3568" as="targetPoint" />
          </mxGeometry>
        </mxCell>
        <mxCell id="PIwd8Y3L6m2QeTUVSltt-197" value="getRulePayload" style="verticalAlign=bottom;endArrow=block;shadow=0;strokeWidth=1;" parent="1" edge="1">
          <mxGeometry relative="1" as="geometry">
            <mxPoint x="1012.5" y="3610.9999999999995" as="sourcePoint" />
            <mxPoint x="832.5" y="3610.9999999999995" as="targetPoint" />
          </mxGeometry>
        </mxCell>
        <mxCell id="PIwd8Y3L6m2QeTUVSltt-198" value=":KafkaTemplate" style="shape=umlLifeline;perimeter=lifelinePerimeter;container=1;collapsible=0;recursiveResize=0;rounded=0;shadow=0;strokeWidth=1;" parent="1" vertex="1">
          <mxGeometry x="1152.5" y="3180" width="100" height="590" as="geometry" />
        </mxCell>
        <mxCell id="PIwd8Y3L6m2QeTUVSltt-199" value="" style="points=[];perimeter=orthogonalPerimeter;rounded=0;shadow=0;strokeWidth=1;" parent="PIwd8Y3L6m2QeTUVSltt-198" vertex="1">
          <mxGeometry x="45" y="80" width="10" height="460" as="geometry" />
        </mxCell>
        <mxCell id="PIwd8Y3L6m2QeTUVSltt-200" value="send" style="verticalAlign=bottom;endArrow=block;shadow=0;strokeWidth=1;" parent="1" target="PIwd8Y3L6m2QeTUVSltt-199" edge="1">
          <mxGeometry relative="1" as="geometry">
            <mxPoint x="1022.5" y="3640" as="sourcePoint" />
            <mxPoint x="1122.4999999999998" y="3640" as="targetPoint" />
          </mxGeometry>
        </mxCell>
        <mxCell id="PIwd8Y3L6m2QeTUVSltt-225" value=":RuleRest&#xa;Controller" style="shape=umlLifeline;perimeter=lifelinePerimeter;container=1;collapsible=0;recursiveResize=0;rounded=0;shadow=0;strokeWidth=1;" parent="1" vertex="1">
          <mxGeometry x="575" y="3964" width="100" height="250" as="geometry" />
        </mxCell>
        <mxCell id="PIwd8Y3L6m2QeTUVSltt-226" value="" style="points=[];perimeter=orthogonalPerimeter;rounded=0;shadow=0;strokeWidth=1;" parent="PIwd8Y3L6m2QeTUVSltt-225" vertex="1">
          <mxGeometry x="45" y="70" width="10" height="150" as="geometry" />
        </mxCell>
        <mxCell id="PIwd8Y3L6m2QeTUVSltt-227" value="dispatch" style="verticalAlign=bottom;startArrow=oval;endArrow=block;startSize=8;shadow=0;strokeWidth=1;" parent="PIwd8Y3L6m2QeTUVSltt-225" target="PIwd8Y3L6m2QeTUVSltt-226" edge="1">
          <mxGeometry relative="1" as="geometry">
            <mxPoint x="-15" y="70" as="sourcePoint" />
          </mxGeometry>
        </mxCell>
        <mxCell id="PIwd8Y3L6m2QeTUVSltt-228" value=":RuleRepository" style="shape=umlLifeline;perimeter=lifelinePerimeter;container=1;collapsible=0;recursiveResize=0;rounded=0;shadow=0;strokeWidth=1;" parent="1" vertex="1">
          <mxGeometry x="755" y="3964" width="100" height="250" as="geometry" />
        </mxCell>
        <mxCell id="PIwd8Y3L6m2QeTUVSltt-229" value="" style="points=[];perimeter=orthogonalPerimeter;rounded=0;shadow=0;strokeWidth=1;" parent="PIwd8Y3L6m2QeTUVSltt-228" vertex="1">
          <mxGeometry x="45" y="80" width="10" height="140" as="geometry" />
        </mxCell>
        <mxCell id="PIwd8Y3L6m2QeTUVSltt-230" value="findAll" style="verticalAlign=bottom;endArrow=block;entryX=0;entryY=0;shadow=0;strokeWidth=1;" parent="1" source="PIwd8Y3L6m2QeTUVSltt-226" target="PIwd8Y3L6m2QeTUVSltt-229" edge="1">
          <mxGeometry relative="1" as="geometry">
            <mxPoint x="730" y="4044" as="sourcePoint" />
          </mxGeometry>
        </mxCell>
        <mxCell id="PIwd8Y3L6m2QeTUVSltt-237" value="&lt;font style=&quot;font-size: 30px&quot;&gt;Get rules(&lt;/font&gt;&lt;font style=&quot;font-size: 20px&quot;&gt;/api/rules&lt;/font&gt;&lt;font style=&quot;font-size: 30px&quot;&gt;)&lt;/font&gt;" style="text;html=1;strokeColor=none;fillColor=none;align=center;verticalAlign=middle;whiteSpace=wrap;rounded=0;" parent="1" vertex="1">
          <mxGeometry x="364.5" y="3890" width="690" height="50" as="geometry" />
        </mxCell>
        <mxCell id="PIwd8Y3L6m2QeTUVSltt-244" value="&lt;font style=&quot;font-size: 30px&quot;&gt;Post Rules(&lt;/font&gt;&lt;font style=&quot;font-size: 20px&quot;&gt;/api/rules&lt;/font&gt;&lt;font style=&quot;font-size: 30px&quot;&gt;)&lt;/font&gt;" style="text;html=1;strokeColor=none;fillColor=none;align=center;verticalAlign=middle;whiteSpace=wrap;rounded=0;" parent="1" vertex="1">
          <mxGeometry x="382.5" y="4310" width="666" height="50" as="geometry" />
        </mxCell>
        <mxCell id="PIwd8Y3L6m2QeTUVSltt-245" value=":RuleRest&#xa;Controller" style="shape=umlLifeline;perimeter=lifelinePerimeter;container=1;collapsible=0;recursiveResize=0;rounded=0;shadow=0;strokeWidth=1;" parent="1" vertex="1">
          <mxGeometry x="205" y="4400" width="100" height="620" as="geometry" />
        </mxCell>
        <mxCell id="PIwd8Y3L6m2QeTUVSltt-246" value="" style="points=[];perimeter=orthogonalPerimeter;rounded=0;shadow=0;strokeWidth=1;" parent="PIwd8Y3L6m2QeTUVSltt-245" vertex="1">
          <mxGeometry x="45" y="70" width="10" height="490" as="geometry" />
        </mxCell>
        <mxCell id="PIwd8Y3L6m2QeTUVSltt-247" value="dispatch" style="verticalAlign=bottom;startArrow=oval;endArrow=block;startSize=8;shadow=0;strokeWidth=1;" parent="PIwd8Y3L6m2QeTUVSltt-245" target="PIwd8Y3L6m2QeTUVSltt-246" edge="1">
          <mxGeometry relative="1" as="geometry">
            <mxPoint x="-15" y="70" as="sourcePoint" />
          </mxGeometry>
        </mxCell>
        <mxCell id="PIwd8Y3L6m2QeTUVSltt-248" value=":Rule" style="shape=umlLifeline;perimeter=lifelinePerimeter;container=1;collapsible=0;recursiveResize=0;rounded=0;shadow=0;strokeWidth=1;" parent="1" vertex="1">
          <mxGeometry x="385" y="4400" width="100" height="620" as="geometry" />
        </mxCell>
        <mxCell id="PIwd8Y3L6m2QeTUVSltt-249" value="" style="points=[];perimeter=orthogonalPerimeter;rounded=0;shadow=0;strokeWidth=1;" parent="PIwd8Y3L6m2QeTUVSltt-248" vertex="1">
          <mxGeometry x="45" y="70" width="10" height="490" as="geometry" />
        </mxCell>
        <mxCell id="PIwd8Y3L6m2QeTUVSltt-250" value="save" style="verticalAlign=bottom;endArrow=block;entryX=0;entryY=0;shadow=0;strokeWidth=1;" parent="1" edge="1">
          <mxGeometry relative="1" as="geometry">
            <mxPoint x="260" y="4491" as="sourcePoint" />
            <mxPoint x="430" y="4491" as="targetPoint" />
          </mxGeometry>
        </mxCell>
        <mxCell id="PIwd8Y3L6m2QeTUVSltt-251" value="&lt;font style=&quot;font-size: 30px&quot;&gt;Get rule(&lt;/font&gt;&lt;font style=&quot;font-size: 20px&quot;&gt;/api/rules/{id}&lt;/font&gt;&lt;font style=&quot;font-size: 30px&quot;&gt;)&lt;/font&gt;" style="text;html=1;strokeColor=none;fillColor=none;align=center;verticalAlign=middle;whiteSpace=wrap;rounded=0;" parent="1" vertex="1">
          <mxGeometry x="403" y="5140" width="666" height="50" as="geometry" />
        </mxCell>
        <mxCell id="PIwd8Y3L6m2QeTUVSltt-252" value=":RuleRest&#xa;Controller" style="shape=umlLifeline;perimeter=lifelinePerimeter;container=1;collapsible=0;recursiveResize=0;rounded=0;shadow=0;strokeWidth=1;" parent="1" vertex="1">
          <mxGeometry x="489" y="5217" width="100" height="250" as="geometry" />
        </mxCell>
        <mxCell id="PIwd8Y3L6m2QeTUVSltt-253" value="" style="points=[];perimeter=orthogonalPerimeter;rounded=0;shadow=0;strokeWidth=1;" parent="PIwd8Y3L6m2QeTUVSltt-252" vertex="1">
          <mxGeometry x="45" y="70" width="10" height="150" as="geometry" />
        </mxCell>
        <mxCell id="PIwd8Y3L6m2QeTUVSltt-254" value="dispatch" style="verticalAlign=bottom;startArrow=oval;endArrow=block;startSize=8;shadow=0;strokeWidth=1;" parent="PIwd8Y3L6m2QeTUVSltt-252" target="PIwd8Y3L6m2QeTUVSltt-253" edge="1">
          <mxGeometry relative="1" as="geometry">
            <mxPoint x="-15" y="70" as="sourcePoint" />
          </mxGeometry>
        </mxCell>
        <mxCell id="PIwd8Y3L6m2QeTUVSltt-255" value=":RuleRepository" style="shape=umlLifeline;perimeter=lifelinePerimeter;container=1;collapsible=0;recursiveResize=0;rounded=0;shadow=0;strokeWidth=1;" parent="1" vertex="1">
          <mxGeometry x="669" y="5217" width="100" height="250" as="geometry" />
        </mxCell>
        <mxCell id="PIwd8Y3L6m2QeTUVSltt-256" value="" style="points=[];perimeter=orthogonalPerimeter;rounded=0;shadow=0;strokeWidth=1;" parent="PIwd8Y3L6m2QeTUVSltt-255" vertex="1">
          <mxGeometry x="45" y="70" width="10" height="150" as="geometry" />
        </mxCell>
        <mxCell id="PIwd8Y3L6m2QeTUVSltt-257" value="findByID" style="verticalAlign=bottom;endArrow=block;entryX=0;entryY=0;shadow=0;strokeWidth=1;" parent="1" edge="1">
          <mxGeometry relative="1" as="geometry">
            <mxPoint x="544" y="5315" as="sourcePoint" />
            <mxPoint x="714" y="5315" as="targetPoint" />
          </mxGeometry>
        </mxCell>
        <mxCell id="PIwd8Y3L6m2QeTUVSltt-258" value=":RuleNotFound&#xa;Exception" style="shape=umlLifeline;perimeter=lifelinePerimeter;container=1;collapsible=0;recursiveResize=0;rounded=0;shadow=0;strokeWidth=1;" parent="1" vertex="1">
          <mxGeometry x="852.5" y="5217" width="100" height="250" as="geometry" />
        </mxCell>
        <mxCell id="PIwd8Y3L6m2QeTUVSltt-259" value="" style="points=[];perimeter=orthogonalPerimeter;rounded=0;shadow=0;strokeWidth=1;" parent="PIwd8Y3L6m2QeTUVSltt-258" vertex="1">
          <mxGeometry x="45" y="80" width="10" height="140" as="geometry" />
        </mxCell>
        <mxCell id="PIwd8Y3L6m2QeTUVSltt-260" value="[if not found] Throw" style="verticalAlign=bottom;endArrow=block;entryX=0;entryY=0;shadow=0;strokeWidth=1;" parent="1" edge="1">
          <mxGeometry relative="1" as="geometry">
            <mxPoint x="725" y="5341.66" as="sourcePoint" />
            <mxPoint x="895" y="5341.66" as="targetPoint" />
          </mxGeometry>
        </mxCell>
        <mxCell id="PIwd8Y3L6m2QeTUVSltt-261" value="&lt;font style=&quot;font-size: 30px&quot;&gt;Delete rule(&lt;/font&gt;&lt;font style=&quot;font-size: 20px&quot;&gt;/api/rules/{id}&lt;/font&gt;&lt;font style=&quot;font-size: 30px&quot;&gt;)&lt;/font&gt;" style="text;html=1;strokeColor=none;fillColor=none;align=center;verticalAlign=middle;whiteSpace=wrap;rounded=0;" parent="1" vertex="1">
          <mxGeometry x="398" y="5550" width="666" height="50" as="geometry" />
        </mxCell>
        <mxCell id="PIwd8Y3L6m2QeTUVSltt-262" value=":RuleRest&#xa;Controller" style="shape=umlLifeline;perimeter=lifelinePerimeter;container=1;collapsible=0;recursiveResize=0;rounded=0;shadow=0;strokeWidth=1;" parent="1" vertex="1">
          <mxGeometry x="231" y="5627" width="100" height="443" as="geometry" />
        </mxCell>
        <mxCell id="PIwd8Y3L6m2QeTUVSltt-263" value="" style="points=[];perimeter=orthogonalPerimeter;rounded=0;shadow=0;strokeWidth=1;" parent="PIwd8Y3L6m2QeTUVSltt-262" vertex="1">
          <mxGeometry x="45" y="70" width="10" height="330" as="geometry" />
        </mxCell>
        <mxCell id="PIwd8Y3L6m2QeTUVSltt-264" value="dispatch" style="verticalAlign=bottom;startArrow=oval;endArrow=block;startSize=8;shadow=0;strokeWidth=1;" parent="PIwd8Y3L6m2QeTUVSltt-262" target="PIwd8Y3L6m2QeTUVSltt-263" edge="1">
          <mxGeometry relative="1" as="geometry">
            <mxPoint x="-15" y="70" as="sourcePoint" />
          </mxGeometry>
        </mxCell>
        <mxCell id="PIwd8Y3L6m2QeTUVSltt-265" value=":RuleRepository" style="shape=umlLifeline;perimeter=lifelinePerimeter;container=1;collapsible=0;recursiveResize=0;rounded=0;shadow=0;strokeWidth=1;" parent="1" vertex="1">
          <mxGeometry x="411" y="5627" width="100" height="443" as="geometry" />
        </mxCell>
        <mxCell id="PIwd8Y3L6m2QeTUVSltt-266" value="" style="points=[];perimeter=orthogonalPerimeter;rounded=0;shadow=0;strokeWidth=1;" parent="PIwd8Y3L6m2QeTUVSltt-265" vertex="1">
          <mxGeometry x="45" y="70" width="10" height="330" as="geometry" />
        </mxCell>
        <mxCell id="PIwd8Y3L6m2QeTUVSltt-267" value="deleteById" style="verticalAlign=bottom;endArrow=block;entryX=0;entryY=0;shadow=0;strokeWidth=1;" parent="1" edge="1">
          <mxGeometry relative="1" as="geometry">
            <mxPoint x="285.9999999999998" y="5725" as="sourcePoint" />
            <mxPoint x="455.9999999999998" y="5725" as="targetPoint" />
          </mxGeometry>
        </mxCell>
        <mxCell id="PIwd8Y3L6m2QeTUVSltt-268" value=":FlinkRulesService" style="shape=umlLifeline;perimeter=lifelinePerimeter;container=1;collapsible=0;recursiveResize=0;rounded=0;shadow=0;strokeWidth=1;" parent="1" vertex="1">
          <mxGeometry x="594.5" y="5627" width="100" height="443" as="geometry" />
        </mxCell>
        <mxCell id="PIwd8Y3L6m2QeTUVSltt-269" value="" style="points=[];perimeter=orthogonalPerimeter;rounded=0;shadow=0;strokeWidth=1;" parent="PIwd8Y3L6m2QeTUVSltt-268" vertex="1">
          <mxGeometry x="45" y="80" width="10" height="320" as="geometry" />
        </mxCell>
        <mxCell id="PIwd8Y3L6m2QeTUVSltt-270" value="deleteRule" style="verticalAlign=bottom;endArrow=block;entryX=0;entryY=0;shadow=0;strokeWidth=1;" parent="1" edge="1">
          <mxGeometry relative="1" as="geometry">
            <mxPoint x="467" y="5751.66" as="sourcePoint" />
            <mxPoint x="637" y="5751.66" as="targetPoint" />
          </mxGeometry>
        </mxCell>
        <mxCell id="PIwd8Y3L6m2QeTUVSltt-271" value=":RulePayload" style="shape=umlLifeline;perimeter=lifelinePerimeter;container=1;collapsible=0;recursiveResize=0;rounded=0;shadow=0;strokeWidth=1;" parent="1" vertex="1">
          <mxGeometry x="768.5" y="5627" width="100" height="443" as="geometry" />
        </mxCell>
        <mxCell id="PIwd8Y3L6m2QeTUVSltt-272" value="" style="points=[];perimeter=orthogonalPerimeter;rounded=0;shadow=0;strokeWidth=1;" parent="PIwd8Y3L6m2QeTUVSltt-271" vertex="1">
          <mxGeometry x="45" y="80" width="10" height="320" as="geometry" />
        </mxCell>
        <mxCell id="PIwd8Y3L6m2QeTUVSltt-275" value=":KafkaTemplate" style="shape=umlLifeline;perimeter=lifelinePerimeter;container=1;collapsible=0;recursiveResize=0;rounded=0;shadow=0;strokeWidth=1;" parent="1" vertex="1">
          <mxGeometry x="1096" y="5627" width="100" height="443" as="geometry" />
        </mxCell>
        <mxCell id="PIwd8Y3L6m2QeTUVSltt-276" value="" style="points=[];perimeter=orthogonalPerimeter;rounded=0;shadow=0;strokeWidth=1;" parent="PIwd8Y3L6m2QeTUVSltt-275" vertex="1">
          <mxGeometry x="45" y="80" width="10" height="320" as="geometry" />
        </mxCell>
        <mxCell id="PIwd8Y3L6m2QeTUVSltt-277" value="send" style="verticalAlign=bottom;endArrow=block;shadow=0;strokeWidth=1;" parent="1" edge="1">
          <mxGeometry relative="1" as="geometry">
            <mxPoint x="996" y="5959" as="sourcePoint" />
            <mxPoint x="1141" y="5959" as="targetPoint" />
          </mxGeometry>
        </mxCell>
        <mxCell id="PIwd8Y3L6m2QeTUVSltt-278" value="setRuleState" style="verticalAlign=bottom;endArrow=block;shadow=0;strokeWidth=1;" parent="1" edge="1">
          <mxGeometry relative="1" as="geometry">
            <mxPoint x="649.5" y="5865" as="sourcePoint" />
            <mxPoint x="813.5" y="5865" as="targetPoint" />
          </mxGeometry>
        </mxCell>
        <mxCell id="PIwd8Y3L6m2QeTUVSltt-279" value="setRuleId" style="verticalAlign=bottom;endArrow=block;shadow=0;strokeWidth=1;" parent="1" edge="1">
          <mxGeometry relative="1" as="geometry">
            <mxPoint x="648.5" y="5802" as="sourcePoint" />
            <mxPoint x="812.5" y="5802" as="targetPoint" />
          </mxGeometry>
        </mxCell>
        <mxCell id="PIwd8Y3L6m2QeTUVSltt-281" value=":ObjectMapper" style="shape=umlLifeline;perimeter=lifelinePerimeter;container=1;collapsible=0;recursiveResize=0;rounded=0;shadow=0;strokeWidth=1;" parent="1" vertex="1">
          <mxGeometry x="941" y="5627" width="100" height="443" as="geometry" />
        </mxCell>
        <mxCell id="PIwd8Y3L6m2QeTUVSltt-282" value="" style="points=[];perimeter=orthogonalPerimeter;rounded=0;shadow=0;strokeWidth=1;" parent="PIwd8Y3L6m2QeTUVSltt-281" vertex="1">
          <mxGeometry x="45" y="80" width="10" height="320" as="geometry" />
        </mxCell>
        <mxCell id="PIwd8Y3L6m2QeTUVSltt-283" value="writeValueAsString" style="verticalAlign=bottom;endArrow=block;shadow=0;strokeWidth=1;" parent="1" edge="1">
          <mxGeometry relative="1" as="geometry">
            <mxPoint x="823.5" y="5911" as="sourcePoint" />
            <mxPoint x="986" y="5911" as="targetPoint" />
          </mxGeometry>
        </mxCell>
        <mxCell id="PIwd8Y3L6m2QeTUVSltt-284" value="&lt;font style=&quot;font-size: 30px&quot;&gt;Delete rules(&lt;/font&gt;&lt;font style=&quot;font-size: 20px&quot;&gt;/api/rules&lt;/font&gt;&lt;font style=&quot;font-size: 30px&quot;&gt;)&lt;/font&gt;" style="text;html=1;strokeColor=none;fillColor=none;align=center;verticalAlign=middle;whiteSpace=wrap;rounded=0;" parent="1" vertex="1">
          <mxGeometry x="400.5" y="6290" width="666" height="50" as="geometry" />
        </mxCell>
        <mxCell id="PIwd8Y3L6m2QeTUVSltt-285" value=":RuleRest&#xa;Controller" style="shape=umlLifeline;perimeter=lifelinePerimeter;container=1;collapsible=0;recursiveResize=0;rounded=0;shadow=0;strokeWidth=1;" parent="1" vertex="1">
          <mxGeometry x="233.5" y="6367" width="100" height="493" as="geometry" />
        </mxCell>
        <mxCell id="PIwd8Y3L6m2QeTUVSltt-286" value="" style="points=[];perimeter=orthogonalPerimeter;rounded=0;shadow=0;strokeWidth=1;" parent="PIwd8Y3L6m2QeTUVSltt-285" vertex="1">
          <mxGeometry x="45" y="70" width="10" height="370" as="geometry" />
        </mxCell>
        <mxCell id="PIwd8Y3L6m2QeTUVSltt-287" value="dispatch" style="verticalAlign=bottom;startArrow=oval;endArrow=block;startSize=8;shadow=0;strokeWidth=1;" parent="PIwd8Y3L6m2QeTUVSltt-285" target="PIwd8Y3L6m2QeTUVSltt-286" edge="1">
          <mxGeometry relative="1" as="geometry">
            <mxPoint x="-15" y="70" as="sourcePoint" />
          </mxGeometry>
        </mxCell>
        <mxCell id="PIwd8Y3L6m2QeTUVSltt-288" value=":RuleRepository" style="shape=umlLifeline;perimeter=lifelinePerimeter;container=1;collapsible=0;recursiveResize=0;rounded=0;shadow=0;strokeWidth=1;" parent="1" vertex="1">
          <mxGeometry x="413.5" y="6367" width="100" height="493" as="geometry" />
        </mxCell>
        <mxCell id="PIwd8Y3L6m2QeTUVSltt-289" value="" style="points=[];perimeter=orthogonalPerimeter;rounded=0;shadow=0;strokeWidth=1;" parent="PIwd8Y3L6m2QeTUVSltt-288" vertex="1">
          <mxGeometry x="45" y="70" width="10" height="370" as="geometry" />
        </mxCell>
        <mxCell id="PIwd8Y3L6m2QeTUVSltt-290" value="deleteById" style="verticalAlign=bottom;endArrow=block;entryX=0;entryY=0;shadow=0;strokeWidth=1;" parent="1" edge="1">
          <mxGeometry relative="1" as="geometry">
            <mxPoint x="288.4999999999998" y="6517" as="sourcePoint" />
            <mxPoint x="458.4999999999998" y="6517" as="targetPoint" />
          </mxGeometry>
        </mxCell>
        <mxCell id="PIwd8Y3L6m2QeTUVSltt-291" value=":FlinkRulesService" style="shape=umlLifeline;perimeter=lifelinePerimeter;container=1;collapsible=0;recursiveResize=0;rounded=0;shadow=0;strokeWidth=1;" parent="1" vertex="1">
          <mxGeometry x="597" y="6367" width="100" height="493" as="geometry" />
        </mxCell>
        <mxCell id="PIwd8Y3L6m2QeTUVSltt-292" value="" style="points=[];perimeter=orthogonalPerimeter;rounded=0;shadow=0;strokeWidth=1;" parent="PIwd8Y3L6m2QeTUVSltt-291" vertex="1">
          <mxGeometry x="45" y="80" width="10" height="360" as="geometry" />
        </mxCell>
        <mxCell id="PIwd8Y3L6m2QeTUVSltt-293" value="deleteRule" style="verticalAlign=bottom;endArrow=block;entryX=0;entryY=0;shadow=0;strokeWidth=1;" parent="1" edge="1">
          <mxGeometry relative="1" as="geometry">
            <mxPoint x="469.5" y="6543.66" as="sourcePoint" />
            <mxPoint x="639.5" y="6543.66" as="targetPoint" />
          </mxGeometry>
        </mxCell>
        <mxCell id="PIwd8Y3L6m2QeTUVSltt-294" value=":RulePayload" style="shape=umlLifeline;perimeter=lifelinePerimeter;container=1;collapsible=0;recursiveResize=0;rounded=0;shadow=0;strokeWidth=1;" parent="1" vertex="1">
          <mxGeometry x="771" y="6367" width="100" height="493" as="geometry" />
        </mxCell>
        <mxCell id="PIwd8Y3L6m2QeTUVSltt-295" value="" style="points=[];perimeter=orthogonalPerimeter;rounded=0;shadow=0;strokeWidth=1;" parent="PIwd8Y3L6m2QeTUVSltt-294" vertex="1">
          <mxGeometry x="45" y="80" width="10" height="360" as="geometry" />
        </mxCell>
        <mxCell id="PIwd8Y3L6m2QeTUVSltt-296" value=":KafkaTemplate" style="shape=umlLifeline;perimeter=lifelinePerimeter;container=1;collapsible=0;recursiveResize=0;rounded=0;shadow=0;strokeWidth=1;" parent="1" vertex="1">
          <mxGeometry x="1098.5" y="6367" width="100" height="493" as="geometry" />
        </mxCell>
        <mxCell id="PIwd8Y3L6m2QeTUVSltt-297" value="" style="points=[];perimeter=orthogonalPerimeter;rounded=0;shadow=0;strokeWidth=1;" parent="PIwd8Y3L6m2QeTUVSltt-296" vertex="1">
          <mxGeometry x="45" y="80" width="10" height="360" as="geometry" />
        </mxCell>
        <mxCell id="PIwd8Y3L6m2QeTUVSltt-298" value="send" style="verticalAlign=bottom;endArrow=block;shadow=0;strokeWidth=1;" parent="1" edge="1">
          <mxGeometry relative="1" as="geometry">
            <mxPoint x="998.5" y="6751" as="sourcePoint" />
            <mxPoint x="1143.5" y="6751" as="targetPoint" />
          </mxGeometry>
        </mxCell>
        <mxCell id="PIwd8Y3L6m2QeTUVSltt-299" value="setRuleState" style="verticalAlign=bottom;endArrow=block;shadow=0;strokeWidth=1;" parent="1" edge="1">
          <mxGeometry relative="1" as="geometry">
            <mxPoint x="652" y="6657" as="sourcePoint" />
            <mxPoint x="816" y="6657" as="targetPoint" />
          </mxGeometry>
        </mxCell>
        <mxCell id="PIwd8Y3L6m2QeTUVSltt-300" value="setRuleId" style="verticalAlign=bottom;endArrow=block;shadow=0;strokeWidth=1;" parent="1" edge="1">
          <mxGeometry relative="1" as="geometry">
            <mxPoint x="651" y="6594" as="sourcePoint" />
            <mxPoint x="815" y="6594" as="targetPoint" />
          </mxGeometry>
        </mxCell>
        <mxCell id="PIwd8Y3L6m2QeTUVSltt-301" value=":ObjectMapper" style="shape=umlLifeline;perimeter=lifelinePerimeter;container=1;collapsible=0;recursiveResize=0;rounded=0;shadow=0;strokeWidth=1;" parent="1" vertex="1">
          <mxGeometry x="943.5" y="6367" width="100" height="493" as="geometry" />
        </mxCell>
        <mxCell id="PIwd8Y3L6m2QeTUVSltt-302" value="" style="points=[];perimeter=orthogonalPerimeter;rounded=0;shadow=0;strokeWidth=1;" parent="PIwd8Y3L6m2QeTUVSltt-301" vertex="1">
          <mxGeometry x="45" y="80" width="10" height="360" as="geometry" />
        </mxCell>
        <mxCell id="PIwd8Y3L6m2QeTUVSltt-303" value="writeValueAsString" style="verticalAlign=bottom;endArrow=block;shadow=0;strokeWidth=1;" parent="1" edge="1">
          <mxGeometry relative="1" as="geometry">
            <mxPoint x="826" y="6714" as="sourcePoint" />
            <mxPoint x="988.5" y="6714" as="targetPoint" />
          </mxGeometry>
        </mxCell>
        <mxCell id="PIwd8Y3L6m2QeTUVSltt-304" value="findAll" style="verticalAlign=bottom;endArrow=block;shadow=0;strokeWidth=1;" parent="1" edge="1">
          <mxGeometry relative="1" as="geometry">
            <mxPoint x="288.5" y="6466" as="sourcePoint" />
            <mxPoint x="458.5" y="6466" as="targetPoint" />
          </mxGeometry>
        </mxCell>
        <mxCell id="PIwd8Y3L6m2QeTUVSltt-305" value="" style="rounded=0;whiteSpace=wrap;html=1;strokeWidth=1;fillColor=none;" parent="1" vertex="1">
          <mxGeometry x="254" y="6490" width="1000" height="290" as="geometry" />
        </mxCell>
        <mxCell id="PIwd8Y3L6m2QeTUVSltt-306" value="" style="shape=card;whiteSpace=wrap;html=1;strokeWidth=1;fillColor=none;rotation=-90;size=22;" parent="1" vertex="1">
          <mxGeometry x="1212" y="6486" width="38" height="46" as="geometry" />
        </mxCell>
        <mxCell id="PIwd8Y3L6m2QeTUVSltt-307" value="Loop" style="text;html=1;strokeColor=none;fillColor=none;align=center;verticalAlign=middle;whiteSpace=wrap;rounded=0;" parent="1" vertex="1">
          <mxGeometry x="1214" y="6497" width="40" height="20" as="geometry" />
        </mxCell>
        <mxCell id="PIwd8Y3L6m2QeTUVSltt-308" value=":RuleRepository" style="shape=umlLifeline;perimeter=lifelinePerimeter;container=1;collapsible=0;recursiveResize=0;rounded=0;shadow=0;strokeWidth=1;" parent="1" vertex="1">
          <mxGeometry x="549.5" y="4400" width="100" height="620" as="geometry" />
        </mxCell>
        <mxCell id="PIwd8Y3L6m2QeTUVSltt-309" value="" style="points=[];perimeter=orthogonalPerimeter;rounded=0;shadow=0;strokeWidth=1;" parent="PIwd8Y3L6m2QeTUVSltt-308" vertex="1">
          <mxGeometry x="45" y="70" width="10" height="490" as="geometry" />
        </mxCell>
        <mxCell id="PIwd8Y3L6m2QeTUVSltt-310" value="save" style="verticalAlign=bottom;endArrow=block;shadow=0;strokeWidth=1;" parent="1" edge="1">
          <mxGeometry relative="1" as="geometry">
            <mxPoint x="440" y="4503" as="sourcePoint" />
            <mxPoint x="594.5" y="4503" as="targetPoint" />
          </mxGeometry>
        </mxCell>
        <mxCell id="PIwd8Y3L6m2QeTUVSltt-311" value="getId" style="verticalAlign=bottom;endArrow=block;shadow=0;strokeWidth=1;" parent="1" edge="1">
          <mxGeometry relative="1" as="geometry">
            <mxPoint x="260" y="4556" as="sourcePoint" />
            <mxPoint x="430" y="4556" as="targetPoint" />
          </mxGeometry>
        </mxCell>
        <mxCell id="PIwd8Y3L6m2QeTUVSltt-312" value=":ObjectMapper" style="shape=umlLifeline;perimeter=lifelinePerimeter;container=1;collapsible=0;recursiveResize=0;rounded=0;shadow=0;strokeWidth=1;" parent="1" vertex="1">
          <mxGeometry x="726" y="4400" width="100" height="620" as="geometry" />
        </mxCell>
        <mxCell id="PIwd8Y3L6m2QeTUVSltt-313" value="" style="points=[];perimeter=orthogonalPerimeter;rounded=0;shadow=0;strokeWidth=1;" parent="PIwd8Y3L6m2QeTUVSltt-312" vertex="1">
          <mxGeometry x="45" y="70" width="10" height="490" as="geometry" />
        </mxCell>
        <mxCell id="PIwd8Y3L6m2QeTUVSltt-314" value="getRulePayload" style="verticalAlign=bottom;endArrow=block;shadow=0;strokeWidth=1;" parent="1" target="PIwd8Y3L6m2QeTUVSltt-249" edge="1">
          <mxGeometry relative="1" as="geometry">
            <mxPoint x="260" y="4606" as="sourcePoint" />
            <mxPoint x="771" y="4606" as="targetPoint" />
          </mxGeometry>
        </mxCell>
        <mxCell id="PIwd8Y3L6m2QeTUVSltt-315" value="readValue" style="verticalAlign=bottom;endArrow=block;shadow=0;strokeWidth=1;" parent="1" target="PIwd8Y3L6m2QeTUVSltt-313" edge="1">
          <mxGeometry relative="1" as="geometry">
            <mxPoint x="260" y="4656" as="sourcePoint" />
            <mxPoint x="594.5" y="4656" as="targetPoint" />
          </mxGeometry>
        </mxCell>
        <mxCell id="PIwd8Y3L6m2QeTUVSltt-316" value="setRulePayload" style="verticalAlign=bottom;endArrow=block;shadow=0;strokeWidth=1;" parent="1" target="PIwd8Y3L6m2QeTUVSltt-324" edge="1">
          <mxGeometry relative="1" as="geometry">
            <mxPoint x="260" y="4706" as="sourcePoint" />
            <mxPoint x="430" y="4706" as="targetPoint" />
          </mxGeometry>
        </mxCell>
        <mxCell id="PIwd8Y3L6m2QeTUVSltt-317" value="save" style="verticalAlign=bottom;endArrow=block;shadow=0;strokeWidth=1;" parent="1" target="PIwd8Y3L6m2QeTUVSltt-309" edge="1">
          <mxGeometry relative="1" as="geometry">
            <mxPoint x="260" y="4750" as="sourcePoint" />
            <mxPoint x="430" y="4750" as="targetPoint" />
          </mxGeometry>
        </mxCell>
        <mxCell id="PIwd8Y3L6m2QeTUVSltt-318" value=":FlinkService" style="shape=umlLifeline;perimeter=lifelinePerimeter;container=1;collapsible=0;recursiveResize=0;rounded=0;shadow=0;strokeWidth=1;" parent="1" vertex="1">
          <mxGeometry x="1090" y="4400" width="100" height="620" as="geometry" />
        </mxCell>
        <mxCell id="PIwd8Y3L6m2QeTUVSltt-319" value="" style="points=[];perimeter=orthogonalPerimeter;rounded=0;shadow=0;strokeWidth=1;" parent="PIwd8Y3L6m2QeTUVSltt-318" vertex="1">
          <mxGeometry x="45" y="70" width="10" height="490" as="geometry" />
        </mxCell>
        <mxCell id="PIwd8Y3L6m2QeTUVSltt-320" value="addRule" style="verticalAlign=bottom;endArrow=block;shadow=0;strokeWidth=1;" parent="1" target="PIwd8Y3L6m2QeTUVSltt-319" edge="1">
          <mxGeometry relative="1" as="geometry">
            <mxPoint x="260" y="4790" as="sourcePoint" />
            <mxPoint x="594.5" y="4790" as="targetPoint" />
          </mxGeometry>
        </mxCell>
        <mxCell id="PIwd8Y3L6m2QeTUVSltt-322" value="getRulePayload" style="verticalAlign=bottom;endArrow=block;shadow=0;strokeWidth=1;" parent="1" source="PIwd8Y3L6m2QeTUVSltt-319" edge="1">
          <mxGeometry relative="1" as="geometry">
            <mxPoint x="942.5" y="4849" as="sourcePoint" />
            <mxPoint x="440" y="4849" as="targetPoint" />
          </mxGeometry>
        </mxCell>
        <mxCell id="PIwd8Y3L6m2QeTUVSltt-323" value=":RulePayLoad" style="shape=umlLifeline;perimeter=lifelinePerimeter;container=1;collapsible=0;recursiveResize=0;rounded=0;shadow=0;strokeWidth=1;" parent="1" vertex="1">
          <mxGeometry x="900" y="4400" width="100" height="620" as="geometry" />
        </mxCell>
        <mxCell id="PIwd8Y3L6m2QeTUVSltt-324" value="" style="points=[];perimeter=orthogonalPerimeter;rounded=0;shadow=0;strokeWidth=1;" parent="PIwd8Y3L6m2QeTUVSltt-323" vertex="1">
          <mxGeometry x="45" y="70" width="10" height="490" as="geometry" />
        </mxCell>
        <mxCell id="PIwd8Y3L6m2QeTUVSltt-327" value=":KafkaTemplate" style="shape=umlLifeline;perimeter=lifelinePerimeter;container=1;collapsible=0;recursiveResize=0;rounded=0;shadow=0;strokeWidth=1;" parent="1" vertex="1">
          <mxGeometry x="1275" y="4400" width="100" height="620" as="geometry" />
        </mxCell>
        <mxCell id="PIwd8Y3L6m2QeTUVSltt-328" value="" style="points=[];perimeter=orthogonalPerimeter;rounded=0;shadow=0;strokeWidth=1;" parent="PIwd8Y3L6m2QeTUVSltt-327" vertex="1">
          <mxGeometry x="45" y="70" width="10" height="490" as="geometry" />
        </mxCell>
        <mxCell id="PIwd8Y3L6m2QeTUVSltt-329" value="send" style="verticalAlign=bottom;endArrow=block;shadow=0;strokeWidth=1;" parent="1" edge="1">
          <mxGeometry relative="1" as="geometry">
            <mxPoint x="1145" y="4885" as="sourcePoint" />
            <mxPoint x="1320" y="4885" as="targetPoint" />
          </mxGeometry>
        </mxCell>
        <mxCell id="vstRXdiq6YBqbPSC85aT-1" value=":Transaction&#xa;Generator" style="shape=umlLifeline;perimeter=lifelinePerimeter;container=1;collapsible=0;recursiveResize=0;rounded=0;shadow=0;strokeWidth=1;" vertex="1" parent="1">
          <mxGeometry x="830" y="1250" width="100" height="250" as="geometry" />
        </mxCell>
        <mxCell id="vstRXdiq6YBqbPSC85aT-2" value="" style="points=[];perimeter=orthogonalPerimeter;rounded=0;shadow=0;strokeWidth=1;" vertex="1" parent="vstRXdiq6YBqbPSC85aT-1">
          <mxGeometry x="45" y="80" width="10" height="140" as="geometry" />
        </mxCell>
        <mxCell id="vstRXdiq6YBqbPSC85aT-3" value="cancel" style="verticalAlign=bottom;endArrow=block;entryX=0;entryY=0;shadow=0;strokeWidth=1;" edge="1" parent="1">
          <mxGeometry relative="1" as="geometry">
            <mxPoint x="710" y="1350" as="sourcePoint" />
            <mxPoint x="880" y="1350" as="targetPoint" />
          </mxGeometry>
        </mxCell>
        <mxCell id="vstRXdiq6YBqbPSC85aT-6" value=":Transaction &#xa;Generator" style="shape=umlLifeline;perimeter=lifelinePerimeter;container=1;collapsible=0;recursiveResize=0;rounded=0;shadow=0;strokeWidth=1;" vertex="1" parent="1">
          <mxGeometry x="920.5" y="830" width="100" height="250" as="geometry" />
        </mxCell>
        <mxCell id="vstRXdiq6YBqbPSC85aT-7" value="" style="points=[];perimeter=orthogonalPerimeter;rounded=0;shadow=0;strokeWidth=1;" vertex="1" parent="vstRXdiq6YBqbPSC85aT-6">
          <mxGeometry x="45" y="80" width="10" height="140" as="geometry" />
        </mxCell>
        <mxCell id="vstRXdiq6YBqbPSC85aT-8" value="run" style="verticalAlign=bottom;endArrow=block;shadow=0;strokeWidth=1;" edge="1" parent="1">
          <mxGeometry relative="1" as="geometry">
            <mxPoint x="670" y="1002" as="sourcePoint" />
            <mxPoint x="964.75" y="1001.9999999999999" as="targetPoint" />
          </mxGeometry>
        </mxCell>
        <mxCell id="vstRXdiq6YBqbPSC85aT-9" value=":Throttler" style="shape=umlLifeline;perimeter=lifelinePerimeter;container=1;collapsible=0;recursiveResize=0;rounded=0;shadow=0;strokeWidth=1;" vertex="1" parent="1">
          <mxGeometry x="1090" y="830" width="100" height="250" as="geometry" />
        </mxCell>
        <mxCell id="vstRXdiq6YBqbPSC85aT-10" value="" style="points=[];perimeter=orthogonalPerimeter;rounded=0;shadow=0;strokeWidth=1;" vertex="1" parent="vstRXdiq6YBqbPSC85aT-9">
          <mxGeometry x="45" y="80" width="10" height="140" as="geometry" />
        </mxCell>
        <mxCell id="vstRXdiq6YBqbPSC85aT-12" value="throttle" style="verticalAlign=bottom;endArrow=block;shadow=0;strokeWidth=1;exitX=1.462;exitY=0.838;exitDx=0;exitDy=0;exitPerimeter=0;" edge="1" parent="1" source="vstRXdiq6YBqbPSC85aT-7" target="vstRXdiq6YBqbPSC85aT-10">
          <mxGeometry relative="1" as="geometry">
            <mxPoint x="990" y="1040" as="sourcePoint" />
            <mxPoint x="1134.5" y="1040" as="targetPoint" />
          </mxGeometry>
        </mxCell>
        <mxCell id="vstRXdiq6YBqbPSC85aT-13" value="" style="rounded=0;whiteSpace=wrap;html=1;strokeWidth=1;fillColor=none;" vertex="1" parent="1">
          <mxGeometry x="490" y="904" width="722" height="136" as="geometry" />
        </mxCell>
        <mxCell id="vstRXdiq6YBqbPSC85aT-14" value="" style="shape=card;whiteSpace=wrap;html=1;strokeWidth=1;fillColor=none;rotation=-90;size=22;" vertex="1" parent="1">
          <mxGeometry x="1170" y="900" width="38" height="46" as="geometry" />
        </mxCell>
        <mxCell id="vstRXdiq6YBqbPSC85aT-15" value="Loop" style="text;html=1;strokeColor=none;fillColor=none;align=center;verticalAlign=middle;whiteSpace=wrap;rounded=0;" vertex="1" parent="1">
          <mxGeometry x="1172" y="911" width="40" height="20" as="geometry" />
        </mxCell>
      </root>
    </mxGraphModel>
  </diagram>
</mxfile>
